<?xml version="1.0" encoding="UTF-8" standalone="no"?>
<!-- Created with Inkscape (http://www.inkscape.org/) -->

<svg
   xmlns:osb="http://www.openswatchbook.org/uri/2009/osb"
   xmlns:dc="http://purl.org/dc/elements/1.1/"
   xmlns:cc="http://creativecommons.org/ns#"
   xmlns:rdf="http://www.w3.org/1999/02/22-rdf-syntax-ns#"
   xmlns:svg="http://www.w3.org/2000/svg"
   xmlns="http://www.w3.org/2000/svg"
   xmlns:sodipodi="http://sodipodi.sourceforge.net/DTD/sodipodi-0.dtd"
   xmlns:inkscape="http://www.inkscape.org/namespaces/inkscape"
   width="12in"
   height="12in"
   viewBox="0 0 304.8 304.80001"
   version="1.1"
   id="svg8"
   sodipodi:docname="chassis_updated.svg"
   inkscape:version="0.92.3 (2405546, 2018-03-11)">
  <defs
     id="defs2">
    <linearGradient
       id="linearGradient6127"
       osb:paint="solid">
      <stop
         style="stop-color:#000000;stop-opacity:1;"
         offset="0"
         id="stop6125" />
    </linearGradient>
    <linearGradient
       id="linearGradient4660"
       osb:paint="solid">
      <stop
         style="stop-color:#000000;stop-opacity:1;"
         offset="0"
         id="stop4658" />
    </linearGradient>
  </defs>
  <sodipodi:namedview
     id="base"
     pagecolor="#ffffff"
     bordercolor="#666666"
     borderopacity="1.0"
     inkscape:pageopacity="0.0"
     inkscape:pageshadow="2"
     inkscape:zoom="1"
     inkscape:cx="0.23665221"
     inkscape:cy="601.41702"
     inkscape:document-units="mm"
     inkscape:current-layer="layer1"
     showgrid="true"
     inkscape:window-width="2400"
     inkscape:window-height="1421"
     inkscape:window-x="-9"
     inkscape:window-y="-9"
     inkscape:window-maximized="1"
     inkscape:pagecheckerboard="false"
     objecttolerance="8"
     inkscape:measure-start="756,705"
     inkscape:measure-end="449,623"
     showguides="true"
     inkscape:guide-bbox="true"
     inkscape:snap-global="true"
     units="in"
     fit-margin-right="-0.2" />
  <metadata
     id="metadata5">
    <rdf:RDF>
      <cc:Work
         rdf:about="">
        <dc:format>image/svg+xml</dc:format>
        <dc:type
           rdf:resource="http://purl.org/dc/dcmitype/StillImage" />
        <dc:title></dc:title>
      </cc:Work>
    </rdf:RDF>
  </metadata>
  <g
     inkscape:label="Layer 1"
     inkscape:groupmode="layer"
     id="layer1"
     transform="translate(0,7.8000168)">
    <text
       xml:space="preserve"
       style="font-style:normal;font-weight:normal;font-size:10.58333302px;line-height:1.25;font-family:sans-serif;letter-spacing:0px;word-spacing:0px;fill:#000000;fill-opacity:1;stroke:none;stroke-width:0.26458332"
       x="51.782742"
       y="53.205357"
       id="text38"><tspan
         sodipodi:role="line"
         id="tspan36"
         x="51.782742"
         y="62.860851"
         style="stroke-width:0.26458332" /></text>
    <path
       inkscape:connector-curvature="0"
       id="path849-0"
       style="opacity:1;fill:none;fill-opacity:1;stroke:#000000;stroke-width:0.07352758;stroke-opacity:1"
       d="m 177.4619,103.58853 a 1.2388723,1.2388734 0 0 1 -1.23887,1.23887 1.2388723,1.2388734 0 0 1 -1.23888,-1.23887 1.2388723,1.2388734 0 0 1 1.23888,-1.23887 1.2388723,1.2388734 0 0 1 1.23887,1.23887 z m 10e-6,-101.6000003 a 1.2388734,1.2388734 0 0 1 -1.23888,1.23887 1.2388734,1.2388734 0 0 1 -1.23888,-1.23887 1.2388734,1.2388734 0 0 1 1.23888,-1.23886003 1.2388734,1.2388734 0 0 1 1.23888,1.23886003 z m -165.109739,0 a 1.2388734,1.2388734 0 0 1 -1.238867,1.23887 1.2388734,1.2388734 0 0 1 -1.238882,-1.23887 1.2388734,1.2388734 0 0 1 1.238882,-1.23886003 1.2388734,1.2388734 0 0 1 1.238867,1.23886003 z M 4.813297,-4.3096396 H 182.51171 V 109.88877 H 4.813297 Z M 12.352171,103.58889 a 1.2388734,1.2388734 0 0 1 -1.238867,1.23887 1.2388734,1.2388734 0 0 1 -1.238882,-1.23887 1.2388734,1.2388734 0 0 1 1.238882,-1.23887 1.2388734,1.2388734 0 0 1 1.238867,1.23887 z" />
    <path
       id="path849-0-9"
       style="opacity:1;fill:none;fill-opacity:1;stroke:#000000;stroke-width:0.07336413;stroke-opacity:1"
       d="m 192.59154,167.83615 a 1.2388734,1.2388723 0.07939504 0 1 -1.23714,-1.24059 1.2388734,1.2388723 0.07939504 0 1 1.24057,-1.23716 1.2388734,1.2388723 0.07939504 0 1 1.23716,1.2406 1.2388734,1.2388723 0.07939504 0 1 -1.24059,1.23715 z m 101.59991,0.1408 a 1.2388734,1.2388734 0 0 1 -1.23715,-1.2406 1.2388734,1.2388734 0 0 1 1.24058,-1.23716 1.2388734,1.2388734 0 0 1 1.23714,1.24059 1.2388734,1.2388734 0 0 1 -1.24057,1.23717 z M 294.42024,2.8673708 a 1.2388734,1.2388734 0 0 1 -1.23715,-1.240585 1.2388734,1.2388734 0 0 1 1.24059,-1.23716203 1.2388734,1.2388734 0 0 1 1.23714,1.24059503 1.2388734,1.2388734 0 0 1 -1.24058,1.237152 z m 6.30861,-7.530135 -0.24623,177.6982342 -114.1983,-0.15825 0.24623,-177.6982292 z m -107.90888,7.389347 a 1.2388734,1.2388734 0 0 1 -1.23714,-1.240585 1.2388734,1.2388734 0 0 1 1.24058,-1.23716193 1.2388734,1.2388734 0 0 1 1.23716,1.24059493 1.2388734,1.2388734 0 0 1 -1.2406,1.237152 z m 75.18661,51.0423322 a 1.3383267,1.338316 0 0 1 1.33832,1.338308 1.3383267,1.338316 0 0 1 -1.33832,1.338328 1.3383267,1.338316 0 0 1 -1.33831,-1.338328 1.3383267,1.338316 0 0 1 1.33831,-1.338308 z m 0,58.000005 a 1.3383258,1.3383168 0 0 1 1.33832,1.3383 1.3383258,1.3383168 0 0 1 -1.33832,1.33833 1.3383258,1.3383168 0 0 1 -1.33831,-1.33833 1.3383258,1.3383168 0 0 1 1.33831,-1.3383 z M 219.00659,53.768915 a 1.3383218,1.338316 0 0 1 1.33832,1.338308 1.3383218,1.338316 0 0 1 -1.33832,1.338328 1.3383218,1.338316 0 0 1 -1.33832,-1.338328 1.3383218,1.338316 0 0 1 1.33832,-1.338308 z m 3.6e-4,57.999765 a 1.3383209,1.3383169 0 0 1 1.33831,1.33831 1.3383209,1.3383169 0 0 1 -1.33831,1.33833 1.3383209,1.3383169 0 0 1 -1.33832,-1.33833 1.3383209,1.3383169 0 0 1 1.33832,-1.33831 z" />
    <path
       id="path1015-7-0-0-0-4-9"
       style="opacity:1;fill:none;fill-opacity:1;stroke:#000000;stroke-width:0.07410269;stroke-miterlimit:4;stroke-dasharray:none;stroke-opacity:1"
       d="m 176.7354,186.92291 a 1.5629467,1.5629566 0 0 1 -1.56294,1.56295 1.5629467,1.5629566 0 0 1 -1.56296,-1.56295 1.5629467,1.5629566 0 0 1 1.56296,-1.56295 1.5629467,1.5629566 0 0 1 1.56294,1.56295 z m -6.4,0 a 1.5629467,1.5629566 0 0 1 -1.56294,1.56295 1.5629467,1.5629566 0 0 1 -1.56296,-1.56295 1.5629467,1.5629566 0 0 1 1.56296,-1.56295 1.5629467,1.5629566 0 0 1 1.56294,1.56295 z m -6.4,0 a 1.5629467,1.5629566 0 0 1 -1.56295,1.56295 1.5629467,1.5629566 0 0 1 -1.56295,-1.56295 1.5629467,1.5629566 0 0 1 1.56295,-1.56295 1.5629467,1.5629566 0 0 1 1.56295,1.56295 z m -6.4,0 a 1.5629467,1.5629566 0 0 1 -1.56295,1.56295 1.5629467,1.5629566 0 0 1 -1.56295,-1.56295 1.5629467,1.5629566 0 0 1 1.56295,-1.56295 1.5629467,1.5629566 0 0 1 1.56295,1.56295 z m -6.40001,0 a 1.5629467,1.5629566 0 0 1 -1.56294,1.56295 1.5629467,1.5629566 0 0 1 -1.56295,-1.56295 1.5629467,1.5629566 0 0 1 1.56295,-1.56295 1.5629467,1.5629566 0 0 1 1.56294,1.56295 z m -6.39999,0 a 1.5629467,1.5629566 0 0 1 -1.56295,1.56295 1.5629467,1.5629566 0 0 1 -1.56295,-1.56295 1.5629467,1.5629566 0 0 1 1.56295,-1.56295 1.5629467,1.5629566 0 0 1 1.56295,1.56295 z m -6.4,0 a 1.5629467,1.5629566 0 0 1 -1.56295,1.56295 1.5629467,1.5629566 0 0 1 -1.56295,-1.56295 1.5629467,1.5629566 0 0 1 1.56295,-1.56295 1.5629467,1.5629566 0 0 1 1.56295,1.56295 z m 38.4,-31.2 a 1.5629467,1.5629566 0 0 1 -1.56294,1.56294 1.5629467,1.5629566 0 0 1 -1.56296,-1.56294 1.5629467,1.5629566 0 0 1 1.56296,-1.56295 1.5629467,1.5629566 0 0 1 1.56294,1.56295 z m -6.4,0 a 1.5629467,1.5629566 0 0 1 -1.56294,1.56294 1.5629467,1.5629566 0 0 1 -1.56296,-1.56294 1.5629467,1.5629566 0 0 1 1.56296,-1.56295 1.5629467,1.5629566 0 0 1 1.56294,1.56295 z m -6.4,0 a 1.5629467,1.5629566 0 0 1 -1.56295,1.56294 1.5629467,1.5629566 0 0 1 -1.56295,-1.56294 1.5629467,1.5629566 0 0 1 1.56295,-1.56295 1.5629467,1.5629566 0 0 1 1.56295,1.56295 z m -6.4,0 a 1.5629467,1.5629566 0 0 1 -1.56295,1.56294 1.5629467,1.5629566 0 0 1 -1.56295,-1.56294 1.5629467,1.5629566 0 0 1 1.56295,-1.56295 1.5629467,1.5629566 0 0 1 1.56295,1.56295 z m -6.4,0 a 1.5629467,1.5629566 0 0 1 -1.56295,1.56294 1.5629467,1.5629566 0 0 1 -1.56295,-1.56294 1.5629467,1.5629566 0 0 1 1.56295,-1.56295 1.5629467,1.5629566 0 0 1 1.56295,1.56295 z m -6.4,0 a 1.5629467,1.5629566 0 0 1 -1.56295,1.56294 1.5629467,1.5629566 0 0 1 -1.56295,-1.56294 1.5629467,1.5629566 0 0 1 1.56295,-1.56295 1.5629467,1.5629566 0 0 1 1.56295,1.56295 z m -6.4,0 a 1.5629467,1.5629566 0 0 1 -1.56295,1.56294 1.5629467,1.5629566 0 0 1 -1.56295,-1.56294 1.5629467,1.5629566 0 0 1 1.56295,-1.56295 1.5629467,1.5629566 0 0 1 1.56295,1.56295 z m -87.634801,31.2 a 1.5629467,1.5629566 0 0 1 -1.562938,1.56294 1.5629467,1.5629566 0 0 1 -1.56296,-1.56294 1.5629467,1.5629566 0 0 1 1.56296,-1.56295 1.5629467,1.5629566 0 0 1 1.562938,1.56295 z m -6.399998,0 a 1.5629467,1.5629566 0 0 1 -1.562941,1.56294 1.5629467,1.5629566 0 0 1 -1.56296,-1.56294 1.5629467,1.5629566 0 0 1 1.56296,-1.56295 1.5629467,1.5629566 0 0 1 1.562941,1.56295 z m -6.400006,0 a 1.5629467,1.5629566 0 0 1 -1.562942,1.56294 1.5629467,1.5629566 0 0 1 -1.562953,-1.56294 1.5629467,1.5629566 0 0 1 1.562953,-1.56295 1.5629467,1.5629566 0 0 1 1.562942,1.56295 z m -6.399999,0 a 1.5629467,1.5629566 0 0 1 -1.562943,1.56294 1.5629467,1.5629566 0 0 1 -1.562953,-1.56294 1.5629467,1.5629566 0 0 1 1.562953,-1.56295 1.5629467,1.5629566 0 0 1 1.562943,1.56295 z m -6.400001,0 a 1.5629467,1.5629566 0 0 1 -1.562942,1.56294 1.5629467,1.5629566 0 0 1 -1.562953,-1.56294 1.5629467,1.5629566 0 0 1 1.562953,-1.56295 1.5629467,1.5629566 0 0 1 1.562942,1.56295 z m -6.399999,0 a 1.5629467,1.5629566 0 0 1 -1.562943,1.56294 1.5629467,1.5629566 0 0 1 -1.562953,-1.56294 1.5629467,1.5629566 0 0 1 1.562953,-1.56295 1.5629467,1.5629566 0 0 1 1.562943,1.56295 z m -6.399999,0 a 1.5629467,1.5629566 0 0 1 -1.562943,1.56294 1.5629467,1.5629566 0 0 1 -1.5629527,-1.56294 1.5629467,1.5629566 0 0 1 1.5629527,-1.56295 1.5629467,1.5629566 0 0 1 1.562943,1.56295 z m 38.400003,-31.2 a 1.5629467,1.5629566 0 0 1 -1.56294,1.56294 1.5629467,1.5629566 0 0 1 -1.56296,-1.56294 1.5629467,1.5629566 0 0 1 1.56296,-1.56295 1.5629467,1.5629566 0 0 1 1.56294,1.56295 z m -6.4,0 a 1.5629467,1.5629566 0 0 1 -1.56294,1.56294 1.5629467,1.5629566 0 0 1 -1.56296,-1.56294 1.5629467,1.5629566 0 0 1 1.56296,-1.56295 1.5629467,1.5629566 0 0 1 1.56294,1.56295 z m -6.400004,0 a 1.5629467,1.5629566 0 0 1 -1.562943,1.56294 1.5629467,1.5629566 0 0 1 -1.562953,-1.56294 1.5629467,1.5629566 0 0 1 1.562953,-1.56295 1.5629467,1.5629566 0 0 1 1.562943,1.56295 z m -6.4,0 a 1.5629467,1.5629566 0 0 1 -1.562943,1.56294 1.5629467,1.5629566 0 0 1 -1.562953,-1.56294 1.5629467,1.5629566 0 0 1 1.562953,-1.56295 1.5629467,1.5629566 0 0 1 1.562943,1.56295 z m -6.4,0 a 1.5629467,1.5629566 0 0 1 -1.562943,1.56294 1.5629467,1.5629566 0 0 1 -1.562953,-1.56294 1.5629467,1.5629566 0 0 1 1.562953,-1.56295 1.5629467,1.5629566 0 0 1 1.562943,1.56295 z m -6.4,0 a 1.5629467,1.5629566 0 0 1 -1.562943,1.56294 1.5629467,1.5629566 0 0 1 -1.562953,-1.56294 1.5629467,1.5629566 0 0 1 1.562953,-1.56295 1.5629467,1.5629566 0 0 1 1.562943,1.56295 z m -6.399999,0 a 1.5629467,1.5629566 0 0 1 -1.562943,1.56294 1.5629467,1.5629566 0 0 1 -1.5629527,-1.56294 1.5629467,1.5629566 0 0 1 1.5629527,-1.56295 1.5629467,1.5629566 0 0 1 1.562943,1.56295 z m 53.365711,-23.97756 a 1.4632395,1.4632366 89.636242 0 1 -1.45391,1.4725 1.4632395,1.4632366 89.636242 0 1 -1.472501,-1.45392 1.4632395,1.4632366 89.636242 0 1 1.453921,-1.47249 1.4632395,1.4632366 89.636242 0 1 1.47249,1.45391 z m 0.504724,79.49839 a 1.4632395,1.4632366 89.636242 0 1 -1.45391,1.47249 1.4632395,1.4632366 89.636242 0 1 -1.472501,-1.45391 1.4632395,1.4632366 89.636242 0 1 1.453921,-1.4725 1.4632395,1.4632366 89.636242 0 1 1.47249,1.45392 z m 56.998838,-0.36188 a 1.4632395,1.4632366 89.636242 0 1 -1.45391,1.4725 1.4632395,1.4632366 89.636242 0 1 -1.4725,-1.45392 1.4632395,1.4632366 89.636242 0 1 1.45392,-1.47249 1.4632395,1.4632366 89.636242 0 1 1.47249,1.45391 z m -0.50472,-79.49838 a 1.4632395,1.4632366 89.636242 0 1 -1.45391,1.4725 1.4632395,1.4632366 89.636242 0 1 -1.4725,-1.45392 1.4632395,1.4632366 89.636242 0 1 1.45392,-1.47249 1.4632395,1.4632366 89.636242 0 1 1.47249,1.45391 z M 11.644551,222.12223 a 1.2388734,1.2388734 0 0 1 -1.238868,1.23887 1.2388734,1.2388734 0 0 1 -1.238881,-1.23887 1.2388734,1.2388734 0 0 1 1.238881,-1.23887 1.2388734,1.2388734 0 0 1 1.238868,1.23887 z M 4.1056769,114.22371 H 181.80409 v 114.1984 H 4.1056769 Z m 7.5388741,6.29817 a 1.2388734,1.2388734 0 0 1 -1.238868,1.23887 1.2388734,1.2388734 0 0 1 -1.238881,-1.23887 1.2388734,1.2388734 0 0 1 1.238881,-1.23887 1.2388734,1.2388734 0 0 1 1.238868,1.23887 z m 165.109729,0 a 1.2388734,1.2388734 0 0 1 -1.23887,1.23887 1.2388734,1.2388734 0 0 1 -1.23888,-1.23887 1.2388734,1.2388734 0 0 1 1.23888,-1.23887 1.2388734,1.2388734 0 0 1 1.23887,1.23887 z m -1e-5,101.59999 a 1.2388723,1.2388734 0 0 1 -1.23886,1.23887 1.2388723,1.2388734 0 0 1 -1.23888,-1.23887 1.2388723,1.2388734 0 0 1 1.23888,-1.23887 1.2388723,1.2388734 0 0 1 1.23886,1.23887 z"
       inkscape:connector-curvature="0" />
  </g>
</svg>
