<?xml version="1.0" encoding="UTF-8" standalone="no"?>
<!-- Created with Inkscape (http://www.inkscape.org/) -->

<svg
   xmlns:osb="http://www.openswatchbook.org/uri/2009/osb"
   xmlns:dc="http://purl.org/dc/elements/1.1/"
   xmlns:cc="http://creativecommons.org/ns#"
   xmlns:rdf="http://www.w3.org/1999/02/22-rdf-syntax-ns#"
   xmlns:svg="http://www.w3.org/2000/svg"
   xmlns="http://www.w3.org/2000/svg"
   xmlns:sodipodi="http://sodipodi.sourceforge.net/DTD/sodipodi-0.dtd"
   xmlns:inkscape="http://www.inkscape.org/namespaces/inkscape"
   width="12in"
   height="12in"
   viewBox="0 0 304.8 304.80001"
   version="1.1"
   id="svg8"
   sodipodi:docname="chassis.svg"
   inkscape:version="0.92.3 (2405546, 2018-03-11)">
  <defs
     id="defs2">
    <linearGradient
       id="linearGradient6127"
       osb:paint="solid">
      <stop
         style="stop-color:#000000;stop-opacity:1;"
         offset="0"
         id="stop6125" />
    </linearGradient>
    <linearGradient
       id="linearGradient4660"
       osb:paint="solid">
      <stop
         style="stop-color:#000000;stop-opacity:1;"
         offset="0"
         id="stop4658" />
    </linearGradient>
  </defs>
  <sodipodi:namedview
     id="base"
     pagecolor="#ffffff"
     bordercolor="#666666"
     borderopacity="1.0"
     inkscape:pageopacity="0.0"
     inkscape:pageshadow="2"
     inkscape:zoom="1.4142136"
     inkscape:cx="361.88445"
     inkscape:cy="333.44457"
     inkscape:document-units="mm"
     inkscape:current-layer="layer1"
     showgrid="true"
     inkscape:window-width="2400"
     inkscape:window-height="1271"
     inkscape:window-x="-9"
     inkscape:window-y="-9"
     inkscape:window-maximized="1"
     inkscape:pagecheckerboard="false"
     objecttolerance="20"
     inkscape:measure-start="426.385,629.325"
     inkscape:measure-end="425.678,337.997"
     showguides="true"
     inkscape:guide-bbox="true"
     inkscape:snap-global="true"
     units="in"
     fit-margin-right="-0.2" />
  <metadata
     id="metadata5">
    <rdf:RDF>
      <cc:Work
         rdf:about="">
        <dc:format>image/svg+xml</dc:format>
        <dc:type
           rdf:resource="http://purl.org/dc/dcmitype/StillImage" />
        <dc:title></dc:title>
      </cc:Work>
    </rdf:RDF>
  </metadata>
  <g
     inkscape:label="Layer 1"
     inkscape:groupmode="layer"
     id="layer1"
     transform="translate(0,7.8000168)">
    <text
       xml:space="preserve"
       style="font-style:normal;font-weight:normal;font-size:10.58333302px;line-height:1.25;font-family:sans-serif;letter-spacing:0px;word-spacing:0px;fill:#000000;fill-opacity:1;stroke:none;stroke-width:0.26458332"
       x="51.782742"
       y="53.205357"
       id="text38"><tspan
         sodipodi:role="line"
         id="tspan36"
         x="51.782742"
         y="62.860851"
         style="stroke-width:0.26458332" /></text>
    <path
       id="path6169-1-0-7"
       style="opacity:1;fill:none;fill-opacity:1;stroke:#000000;stroke-width:0.06225328;stroke-opacity:1"
       d="m 139.39177,200.45153 a 1.2388723,1.2388734 0 0 1 -1.23887,1.23887 1.2388723,1.2388734 0 0 1 -1.23888,-1.23887 1.2388723,1.2388734 0 0 1 1.23888,-1.23887 1.2388723,1.2388734 0 0 1 1.23887,1.23887 z m 1e-5,-63.5 a 1.2388734,1.2388734 0 0 1 -1.23888,1.23887 1.2388734,1.2388734 0 0 1 -1.23888,-1.23887 1.2388734,1.2388734 0 0 1 1.23888,-1.23887 1.2388734,1.2388734 0 0 1 1.23888,1.23887 z m -127.000005,0 a 1.2388734,1.2388734 0 0 1 -1.238868,1.23887 1.2388734,1.2388734 0 0 1 -1.2388797,-1.23887 1.2388734,1.2388734 0 0 1 1.2388797,-1.23887 1.2388734,1.2388734 0 0 1 1.238868,1.23887 z M 4.838869,130.6375 H 144.46693 v 76.12806 H 4.838869 Z m 7.552906,69.81403 a 1.2388734,1.2388734 0 0 1 -1.238868,1.23887 1.2388734,1.2388734 0 0 1 -1.2388797,-1.23887 1.2388734,1.2388734 0 0 1 1.2388797,-1.23887 1.2388734,1.2388734 0 0 1 1.238868,1.23887 z"
       inkscape:connector-curvature="0" />
    <path
       id="path6169-1-0-77"
       style="opacity:1;fill:none;fill-opacity:1;stroke:#000000;stroke-width:0.06225328;stroke-opacity:1"
       d="m 138.82221,118.40623 a 1.2388723,1.2388734 0 0 1 -1.23887,1.23887 1.2388723,1.2388734 0 0 1 -1.23888,-1.23887 1.2388723,1.2388734 0 0 1 1.23888,-1.23887 1.2388723,1.2388734 0 0 1 1.23887,1.23887 z m 10e-6,-63.499996 a 1.2388734,1.2388734 0 0 1 -1.23888,1.23887 1.2388734,1.2388734 0 0 1 -1.23888,-1.23887 1.2388734,1.2388734 0 0 1 1.23888,-1.23887 1.2388734,1.2388734 0 0 1 1.23888,1.23887 z m -127.000016,0 a 1.2388734,1.2388734 0 0 1 -1.238869,1.23887 1.2388734,1.2388734 0 0 1 -1.2388803,-1.23887 1.2388734,1.2388734 0 0 1 1.2388803,-1.23887 1.2388734,1.2388734 0 0 1 1.238869,1.23887 z M 4.2692963,48.592204 H 143.89737 V 124.72026 H 4.2692963 Z m 7.5529077,69.814026 a 1.2388734,1.2388734 0 0 1 -1.238869,1.23887 1.2388734,1.2388734 0 0 1 -1.2388803,-1.23887 1.2388734,1.2388734 0 0 1 1.2388803,-1.23887 1.2388734,1.2388734 0 0 1 1.238869,1.23887 z"
       inkscape:connector-curvature="0" />
    <path
       id="path4602-9-9-5"
       style="opacity:1;fill:none;fill-opacity:1;stroke:#ff0000;stroke-width:0.06740024;stroke-opacity:1"
       d="m 100.56725,133.05688 a 1.341303,1.3412981 0 0 1 1.3413,1.34129 1.341303,1.3412981 0 0 1 -1.3413,1.34131 1.341303,1.3412981 0 0 1 -1.3413,-1.34131 1.341303,1.3412981 0 0 1 1.3413,-1.34129 z m 0,58 a 1.341303,1.3412981 0 0 1 1.3413,1.34129 1.341303,1.3412981 0 0 1 -1.3413,1.34131 1.341303,1.3412981 0 0 1 -1.3413,-1.34131 1.341303,1.3412981 0 0 1 1.3413,-1.34129 z m -49.00043,-58 a 1.341303,1.3412981 0 0 1 1.3413,1.34129 1.341303,1.3412981 0 0 1 -1.3413,1.34131 1.341303,1.3412981 0 0 1 -1.3413,-1.34131 1.341303,1.3412981 0 0 1 1.3413,-1.34129 z m 0,58 a 1.341303,1.3412981 0 0 1 1.3413,1.34129 1.341303,1.3412981 0 0 1 -1.3413,1.34131 1.341303,1.3412981 0 0 1 -1.3413,-1.34131 1.341303,1.3412981 0 0 1 1.3413,-1.34129 z"
       inkscape:connector-curvature="0" />
    <path
       id="path4701-2-63-2-6"
       style="opacity:1;fill:none;fill-opacity:1;stroke:#000000;stroke-width:0.07842936;stroke-opacity:1"
       d="m 11.122425,268.44021 a 1.560783,1.5607885 0 0 1 -1.5607781,1.56079 1.560783,1.5607885 0 0 1 -1.560791,-1.56079 1.560783,1.5607885 0 0 1 1.560791,-1.56078 1.560783,1.5607885 0 0 1 1.5607781,1.56078 z m 6.400001,0 a 1.560783,1.5607885 0 0 1 -1.560779,1.56079 1.560783,1.5607885 0 0 1 -1.560791,-1.56079 1.560783,1.5607885 0 0 1 1.560791,-1.56078 1.560783,1.5607885 0 0 1 1.560779,1.56078 z m 6.4,0 a 1.560783,1.5607885 0 0 1 -1.560779,1.56079 1.560783,1.5607885 0 0 1 -1.560791,-1.56079 1.560783,1.5607885 0 0 1 1.560791,-1.56078 1.560783,1.5607885 0 0 1 1.560779,1.56078 z m 6.4,0 a 1.560783,1.5607885 0 0 1 -1.560779,1.56079 1.560783,1.5607885 0 0 1 -1.560791,-1.56079 1.560783,1.5607885 0 0 1 1.560791,-1.56078 1.560783,1.5607885 0 0 1 1.560779,1.56078 z m 6.4,0 a 1.560783,1.5607885 0 0 1 -1.56078,1.56079 1.560783,1.5607885 0 0 1 -1.56079,-1.56079 1.560783,1.5607885 0 0 1 1.56079,-1.56078 1.560783,1.5607885 0 0 1 1.56078,1.56078 z m 6.400001,0 a 1.560783,1.5607885 0 0 1 -1.56078,1.56079 1.560783,1.5607885 0 0 1 -1.56079,-1.56079 1.560783,1.5607885 0 0 1 1.56079,-1.56078 1.560783,1.5607885 0 0 1 1.56078,1.56078 z m 6.399998,0 a 1.560783,1.5607885 0 0 1 -1.560777,1.56079 1.560783,1.5607885 0 0 1 -1.560793,-1.56079 1.560783,1.5607885 0 0 1 1.560793,-1.56078 1.560783,1.5607885 0 0 1 1.560777,1.56078 z m -38.4,-31.2 a 1.560783,1.5607885 0 0 1 -1.5607781,1.56079 1.560783,1.5607885 0 0 1 -1.560791,-1.56079 1.560783,1.5607885 0 0 1 1.560791,-1.56078 1.560783,1.5607885 0 0 1 1.5607781,1.56078 z m 6.400001,0 a 1.560783,1.5607885 0 0 1 -1.560779,1.56079 1.560783,1.5607885 0 0 1 -1.560791,-1.56079 1.560783,1.5607885 0 0 1 1.560791,-1.56078 1.560783,1.5607885 0 0 1 1.560779,1.56078 z m 6.400001,0 a 1.560783,1.5607885 0 0 1 -1.560779,1.56079 1.560783,1.5607885 0 0 1 -1.560791,-1.56079 1.560783,1.5607885 0 0 1 1.560791,-1.56078 1.560783,1.5607885 0 0 1 1.560779,1.56078 z m 6.4,0 a 1.560783,1.5607885 0 0 1 -1.560779,1.56079 1.560783,1.5607885 0 0 1 -1.560791,-1.56079 1.560783,1.5607885 0 0 1 1.560791,-1.56078 1.560783,1.5607885 0 0 1 1.560779,1.56078 z m 6.399999,0 a 1.560783,1.5607885 0 0 1 -1.56078,1.56079 1.560783,1.5607885 0 0 1 -1.560789,-1.56079 1.560783,1.5607885 0 0 1 1.560789,-1.56078 1.560783,1.5607885 0 0 1 1.56078,1.56078 z m 6.400001,0 a 1.560783,1.5607885 0 0 1 -1.56078,1.56079 1.560783,1.5607885 0 0 1 -1.56079,-1.56079 1.560783,1.5607885 0 0 1 1.56079,-1.56078 1.560783,1.5607885 0 0 1 1.56078,1.56078 z m 6.399998,0 a 1.560783,1.5607885 0 0 1 -1.560777,1.56079 1.560783,1.5607885 0 0 1 -1.560793,-1.56079 1.560783,1.5607885 0 0 1 1.560793,-1.56078 1.560783,1.5607885 0 0 1 1.560777,1.56078 z m 88.031685,47.35001 a 1.2388723,1.2388734 0 0 1 -1.23886,1.23887 1.2388723,1.2388734 0 0 1 -1.23888,-1.23887 1.2388723,1.2388734 0 0 1 1.23888,-1.23887 1.2388723,1.2388734 0 0 1 1.23886,1.23887 z m 1e-5,-63.50001 a 1.2388734,1.2388734 0 0 1 -1.23887,1.23887 1.2388734,1.2388734 0 0 1 -1.23888,-1.23887 1.2388734,1.2388734 0 0 1 1.23888,-1.23886 1.2388734,1.2388734 0 0 1 1.23887,1.23886 z m -127.000004,0 a 1.2388734,1.2388734 0 0 1 -1.2388681,1.23887 1.2388734,1.2388734 0 0 1 -1.238881,-1.23887 1.2388734,1.2388734 0 0 1 1.238881,-1.23886 1.2388734,1.2388734 0 0 1 1.2388681,1.23886 z M 3.0012091,214.77618 H 142.62927 v 76.12807 H 3.0012091 Z m 7.5529069,69.81404 a 1.2388734,1.2388734 0 0 1 -1.2388681,1.23887 1.2388734,1.2388734 0 0 1 -1.238881,-1.23887 1.2388734,1.2388734 0 0 1 1.238881,-1.23887 1.2388734,1.2388734 0 0 1 1.2388681,1.23887 z m 88.667317,-16.15 a 1.560783,1.5607885 0 0 1 -1.56079,1.56078 1.560783,1.5607885 0 0 1 -1.560787,-1.56078 1.560783,1.5607885 0 0 1 1.560787,-1.56079 1.560783,1.5607885 0 0 1 1.56079,1.56079 z m 6.399997,0 a 1.560783,1.5607885 0 0 1 -1.56078,1.56078 1.560783,1.5607885 0 0 1 -1.56079,-1.56078 1.560783,1.5607885 0 0 1 1.56079,-1.56079 1.560783,1.5607885 0 0 1 1.56078,1.56079 z m 6.4,0 a 1.560783,1.5607885 0 0 1 -1.56078,1.56078 1.560783,1.5607885 0 0 1 -1.56079,-1.56078 1.560783,1.5607885 0 0 1 1.56079,-1.56079 1.560783,1.5607885 0 0 1 1.56078,1.56079 z m 6.4,0 a 1.560783,1.5607885 0 0 1 -1.56078,1.56078 1.560783,1.5607885 0 0 1 -1.56079,-1.56078 1.560783,1.5607885 0 0 1 1.56079,-1.56079 1.560783,1.5607885 0 0 1 1.56078,1.56079 z m 6.4,0 a 1.560783,1.5607885 0 0 1 -1.56078,1.56078 1.560783,1.5607885 0 0 1 -1.56079,-1.56078 1.560783,1.5607885 0 0 1 1.56079,-1.56079 1.560783,1.5607885 0 0 1 1.56078,1.56079 z m 6.4,0 a 1.560783,1.5607885 0 0 1 -1.56078,1.56078 1.560783,1.5607885 0 0 1 -1.56079,-1.56078 1.560783,1.5607885 0 0 1 1.56079,-1.56079 1.560783,1.5607885 0 0 1 1.56078,1.56079 z m 6.4,0 a 1.560783,1.5607885 0 0 1 -1.56078,1.56078 1.560783,1.5607885 0 0 1 -1.56079,-1.56078 1.560783,1.5607885 0 0 1 1.56079,-1.56079 1.560783,1.5607885 0 0 1 1.56078,1.56079 z M 99.221433,237.24021 a 1.560783,1.5607885 0 0 1 -1.56079,1.56079 1.560783,1.5607885 0 0 1 -1.560787,-1.56079 1.560783,1.5607885 0 0 1 1.560787,-1.56078 1.560783,1.5607885 0 0 1 1.56079,1.56078 z m 6.399997,0 a 1.560783,1.5607885 0 0 1 -1.56078,1.56079 1.560783,1.5607885 0 0 1 -1.56079,-1.56079 1.560783,1.5607885 0 0 1 1.56079,-1.56078 1.560783,1.5607885 0 0 1 1.56078,1.56078 z m 6.4,0 a 1.560783,1.5607885 0 0 1 -1.56078,1.56079 1.560783,1.5607885 0 0 1 -1.56079,-1.56079 1.560783,1.5607885 0 0 1 1.56079,-1.56078 1.560783,1.5607885 0 0 1 1.56078,1.56078 z m 6.4,0 a 1.560783,1.5607885 0 0 1 -1.56078,1.56079 1.560783,1.5607885 0 0 1 -1.56079,-1.56079 1.560783,1.5607885 0 0 1 1.56079,-1.56078 1.560783,1.5607885 0 0 1 1.56078,1.56078 z m 6.4,0 a 1.560783,1.5607885 0 0 1 -1.56078,1.56079 1.560783,1.5607885 0 0 1 -1.56079,-1.56079 1.560783,1.5607885 0 0 1 1.56079,-1.56078 1.560783,1.5607885 0 0 1 1.56078,1.56078 z m 6.4,0 a 1.560783,1.5607885 0 0 1 -1.56078,1.56079 1.560783,1.5607885 0 0 1 -1.56079,-1.56079 1.560783,1.5607885 0 0 1 1.56079,-1.56078 1.560783,1.5607885 0 0 1 1.56078,1.56078 z m 6.4,0 a 1.560783,1.5607885 0 0 1 -1.56078,1.56079 1.560783,1.5607885 0 0 1 -1.56079,-1.56079 1.560783,1.5607885 0 0 1 1.56079,-1.56078 1.560783,1.5607885 0 0 1 1.56078,1.56078 z"
       inkscape:connector-curvature="0" />
    <path
       id="path4923-1"
       style="opacity:1;fill:none;fill-opacity:1;stroke:#00ff00;stroke-width:0.07352758;stroke-opacity:1"
       d="m 33.065242,222.87698 a 1.4632395,1.4632366 0 0 1 1.46324,1.46323 1.4632395,1.4632366 0 0 1 -1.46324,1.46324 1.4632395,1.4632366 0 0 1 -1.46323,-1.46324 1.4632395,1.4632366 0 0 1 1.46323,-1.46323 z m 79.499988,0 a 1.4632395,1.4632366 0 0 1 1.46324,1.46323 1.4632395,1.4632366 0 0 1 -1.46324,1.46324 1.4632395,1.4632366 0 0 1 -1.46323,-1.46324 1.4632395,1.4632366 0 0 1 1.46323,-1.46323 z m 1e-5,57 a 1.4632395,1.4632366 0 0 1 1.46323,1.46323 1.4632395,1.4632366 0 0 1 -1.46323,1.46324 1.4632395,1.4632366 0 0 1 -1.46324,-1.46324 1.4632395,1.4632366 0 0 1 1.46324,-1.46323 z m -79.499998,0 a 1.4632395,1.4632366 0 0 1 1.46324,1.46323 1.4632395,1.4632366 0 0 1 -1.46324,1.46324 1.4632395,1.4632366 0 0 1 -1.46323,-1.46324 1.4632395,1.4632366 0 0 1 1.46323,-1.46323 z"
       inkscape:connector-curvature="0">
      <desc
         id="desc4953">Motor Driver</desc>
    </path>
  </g>
</svg>
