<?xml version="1.0" encoding="UTF-8" standalone="no"?>
<!-- Created with Inkscape (http://www.inkscape.org/) -->

<svg
   xmlns:osb="http://www.openswatchbook.org/uri/2009/osb"
   xmlns:dc="http://purl.org/dc/elements/1.1/"
   xmlns:cc="http://creativecommons.org/ns#"
   xmlns:rdf="http://www.w3.org/1999/02/22-rdf-syntax-ns#"
   xmlns:svg="http://www.w3.org/2000/svg"
   xmlns="http://www.w3.org/2000/svg"
   xmlns:sodipodi="http://sodipodi.sourceforge.net/DTD/sodipodi-0.dtd"
   xmlns:inkscape="http://www.inkscape.org/namespaces/inkscape"
   width="12in"
   height="12in"
   viewBox="0 0 304.8 304.80001"
   version="1.1"
   id="svg8"
   sodipodi:docname="chassis.svg"
   inkscape:version="0.92.3 (2405546, 2018-03-11)">
  <defs
     id="defs2">
    <linearGradient
       id="linearGradient6127"
       osb:paint="solid">
      <stop
         style="stop-color:#000000;stop-opacity:1;"
         offset="0"
         id="stop6125" />
    </linearGradient>
    <linearGradient
       id="linearGradient4660"
       osb:paint="solid">
      <stop
         style="stop-color:#000000;stop-opacity:1;"
         offset="0"
         id="stop4658" />
    </linearGradient>
  </defs>
  <sodipodi:namedview
     id="base"
     pagecolor="#ffffff"
     bordercolor="#666666"
     borderopacity="1.0"
     inkscape:pageopacity="0.0"
     inkscape:pageshadow="2"
     inkscape:zoom="1"
     inkscape:cx="271.0427"
     inkscape:cy="622.62501"
     inkscape:document-units="mm"
     inkscape:current-layer="layer1"
     showgrid="true"
     inkscape:window-width="1920"
     inkscape:window-height="1001"
     inkscape:window-x="-9"
     inkscape:window-y="-9"
     inkscape:window-maximized="1"
     inkscape:pagecheckerboard="false"
     objecttolerance="8"
     inkscape:measure-start="426.385,629.325"
     inkscape:measure-end="425.678,337.997"
     showguides="true"
     inkscape:guide-bbox="true"
     inkscape:snap-global="true"
     units="in"
     fit-margin-right="-0.2" />
  <metadata
     id="metadata5">
    <rdf:RDF>
      <cc:Work
         rdf:about="">
        <dc:format>image/svg+xml</dc:format>
        <dc:type
           rdf:resource="http://purl.org/dc/dcmitype/StillImage" />
        <dc:title></dc:title>
      </cc:Work>
    </rdf:RDF>
  </metadata>
  <g
     inkscape:label="Layer 1"
     inkscape:groupmode="layer"
     id="layer1"
     transform="translate(0,7.8000168)">
    <text
       xml:space="preserve"
       style="font-style:normal;font-weight:normal;font-size:10.58333302px;line-height:1.25;font-family:sans-serif;letter-spacing:0px;word-spacing:0px;fill:#000000;fill-opacity:1;stroke:none;stroke-width:0.26458332"
       x="51.782742"
       y="53.205357"
       id="text38"><tspan
         sodipodi:role="line"
         id="tspan36"
         x="51.782742"
         y="62.860851"
         style="stroke-width:0.26458332" /></text>
    <path
       id="path6169-1-0-77"
       style="opacity:1;fill:none;fill-opacity:1;stroke:#000000;stroke-width:0.06225328;stroke-opacity:1"
       d="m 138.29304,126.34373 a 1.2388723,1.2388734 0 0 1 -1.23887,1.23887 1.2388723,1.2388734 0 0 1 -1.23888,-1.23887 1.2388723,1.2388734 0 0 1 1.23888,-1.23887 1.2388723,1.2388734 0 0 1 1.23887,1.23887 z m 1e-5,-63.499996 a 1.2388734,1.2388734 0 0 1 -1.23888,1.23887 1.2388734,1.2388734 0 0 1 -1.23888,-1.23887 1.2388734,1.2388734 0 0 1 1.23888,-1.23887 1.2388734,1.2388734 0 0 1 1.23888,1.23887 z m -127.000013,0 a 1.2388734,1.2388734 0 0 1 -1.238869,1.23887 1.2388734,1.2388734 0 0 1 -1.23888,-1.23887 1.2388734,1.2388734 0 0 1 1.23888,-1.23887 1.2388734,1.2388734 0 0 1 1.238869,1.23887 z M 3.7401296,56.529704 H 143.3682 V 132.65776 H 3.7401296 Z m 7.5529074,69.814026 a 1.2388734,1.2388734 0 0 1 -1.238869,1.23887 1.2388734,1.2388734 0 0 1 -1.23888,-1.23887 1.2388734,1.2388734 0 0 1 1.23888,-1.23887 1.2388734,1.2388734 0 0 1 1.238869,1.23887 z"
       inkscape:connector-curvature="0" />
    <path
       id="path4602-9-9-5"
       style="opacity:1;fill:none;fill-opacity:1;stroke:#000000;stroke-width:0.06740024;stroke-opacity:1"
       d="m 11.160074,204.94945 a 1.2388734,1.2388734 0 0 1 -1.2388676,1.23887 1.2388734,1.2388734 0 0 1 -1.23888,-1.23887 1.2388734,1.2388734 0 0 1 1.23888,-1.23887 1.2388734,1.2388734 0 0 1 1.2388676,1.23887 z M 3.6071678,135.13542 H 143.23523 v 76.12806 H 3.6071678 Z m 7.5529062,6.31403 a 1.2388734,1.2388734 0 0 1 -1.2388676,1.23887 1.2388734,1.2388734 0 0 1 -1.23888,-1.23887 1.2388734,1.2388734 0 0 1 1.23888,-1.23887 1.2388734,1.2388734 0 0 1 1.2388676,1.23887 z m 127.000006,0 a 1.2388734,1.2388734 0 0 1 -1.23888,1.23887 1.2388734,1.2388734 0 0 1 -1.23888,-1.23887 1.2388734,1.2388734 0 0 1 1.23888,-1.23887 1.2388734,1.2388734 0 0 1 1.23888,1.23887 z m -1e-5,63.5 a 1.2388723,1.2388734 0 0 1 -1.23887,1.23887 1.2388723,1.2388734 0 0 1 -1.23888,-1.23887 1.2388723,1.2388734 0 0 1 1.23888,-1.23887 1.2388723,1.2388734 0 0 1 1.23887,1.23887 z M 97.921413,138.08397 a 1.341303,1.3412981 0 0 1 1.3413,1.34129 1.341303,1.3412981 0 0 1 -1.3413,1.34131 1.341303,1.3412981 0 0 1 -1.341297,-1.34131 1.341303,1.3412981 0 0 1 1.341297,-1.34129 z m 0,58 a 1.341303,1.3412981 0 0 1 1.3413,1.34129 1.341303,1.3412981 0 0 1 -1.3413,1.34131 1.341303,1.3412981 0 0 1 -1.341297,-1.34131 1.341303,1.3412981 0 0 1 1.341297,-1.34129 z m -49.000427,-58 a 1.341303,1.3412981 0 0 1 1.3413,1.34129 1.341303,1.3412981 0 0 1 -1.3413,1.34131 1.341303,1.3412981 0 0 1 -1.3413,-1.34131 1.341303,1.3412981 0 0 1 1.3413,-1.34129 z m 0,58 a 1.341303,1.3412981 0 0 1 1.3413,1.34129 1.341303,1.3412981 0 0 1 -1.3413,1.34131 1.341303,1.3412981 0 0 1 -1.3413,-1.34131 1.341303,1.3412981 0 0 1 1.3413,-1.34129 z" />
    <path
       id="path4923-1"
       style="opacity:1;fill:none;fill-opacity:1;stroke:#000000;stroke-width:0.07352758;stroke-opacity:1"
       d="m 33.626506,280.06407 a 1.4632395,1.4632366 0 0 1 1.46324,1.46323 1.4632395,1.4632366 0 0 1 -1.46324,1.46324 1.4632395,1.4632366 0 0 1 -1.46323,-1.46324 1.4632395,1.4632366 0 0 1 1.46323,-1.46323 z m 79.500004,0 a 1.4632395,1.4632366 0 0 1 1.46323,1.46323 1.4632395,1.4632366 0 0 1 -1.46323,1.46324 1.4632395,1.4632366 0 0 1 -1.46324,-1.46324 1.4632395,1.4632366 0 0 1 1.46324,-1.46323 z m -1e-5,-57 a 1.4632395,1.4632366 0 0 1 1.46324,1.46323 1.4632395,1.4632366 0 0 1 -1.46324,1.46324 1.4632395,1.4632366 0 0 1 -1.46323,-1.46324 1.4632395,1.4632366 0 0 1 1.46323,-1.46323 z m -79.499994,0 a 1.4632395,1.4632366 0 0 1 1.46324,1.46323 1.4632395,1.4632366 0 0 1 -1.46324,1.46324 1.4632395,1.4632366 0 0 1 -1.46323,-1.46324 1.4632395,1.4632366 0 0 1 1.46323,-1.46323 z M 138.1827,237.4273 a 1.560783,1.5607885 0 0 1 -1.56078,1.56079 1.560783,1.5607885 0 0 1 -1.56079,-1.56079 1.560783,1.5607885 0 0 1 1.56079,-1.56078 1.560783,1.5607885 0 0 1 1.56078,1.56078 z m -6.4,0 a 1.560783,1.5607885 0 0 1 -1.56078,1.56079 1.560783,1.5607885 0 0 1 -1.56079,-1.56079 1.560783,1.5607885 0 0 1 1.56079,-1.56078 1.560783,1.5607885 0 0 1 1.56078,1.56078 z m -6.4,0 a 1.560783,1.5607885 0 0 1 -1.56078,1.56079 1.560783,1.5607885 0 0 1 -1.56079,-1.56079 1.560783,1.5607885 0 0 1 1.56079,-1.56078 1.560783,1.5607885 0 0 1 1.56078,1.56078 z m -6.4,0 a 1.560783,1.5607885 0 0 1 -1.56078,1.56079 1.560783,1.5607885 0 0 1 -1.56079,-1.56079 1.560783,1.5607885 0 0 1 1.56079,-1.56078 1.560783,1.5607885 0 0 1 1.56078,1.56078 z m -6.4,0 a 1.560783,1.5607885 0 0 1 -1.56078,1.56079 1.560783,1.5607885 0 0 1 -1.56079,-1.56079 1.560783,1.5607885 0 0 1 1.56079,-1.56078 1.560783,1.5607885 0 0 1 1.56078,1.56078 z m -6.4,0 a 1.560783,1.5607885 0 0 1 -1.56078,1.56079 1.560783,1.5607885 0 0 1 -1.56079,-1.56079 1.560783,1.5607885 0 0 1 1.56079,-1.56078 1.560783,1.5607885 0 0 1 1.56078,1.56078 z m -6.399999,0 a 1.560783,1.5607885 0 0 1 -1.56079,1.56079 1.560783,1.5607885 0 0 1 -1.560787,-1.56079 1.560783,1.5607885 0 0 1 1.560787,-1.56078 1.560783,1.5607885 0 0 1 1.56079,1.56078 z m 38.399999,31.20001 a 1.560783,1.5607885 0 0 1 -1.56078,1.56078 1.560783,1.5607885 0 0 1 -1.56079,-1.56078 1.560783,1.5607885 0 0 1 1.56079,-1.56079 1.560783,1.5607885 0 0 1 1.56078,1.56079 z m -6.4,0 a 1.560783,1.5607885 0 0 1 -1.56078,1.56078 1.560783,1.5607885 0 0 1 -1.56079,-1.56078 1.560783,1.5607885 0 0 1 1.56079,-1.56079 1.560783,1.5607885 0 0 1 1.56078,1.56079 z m -6.4,0 a 1.560783,1.5607885 0 0 1 -1.56078,1.56078 1.560783,1.5607885 0 0 1 -1.56079,-1.56078 1.560783,1.5607885 0 0 1 1.56079,-1.56079 1.560783,1.5607885 0 0 1 1.56078,1.56079 z m -6.4,0 a 1.560783,1.5607885 0 0 1 -1.56078,1.56078 1.560783,1.5607885 0 0 1 -1.56079,-1.56078 1.560783,1.5607885 0 0 1 1.56079,-1.56079 1.560783,1.5607885 0 0 1 1.56078,1.56079 z m -6.4,0 a 1.560783,1.5607885 0 0 1 -1.56078,1.56078 1.560783,1.5607885 0 0 1 -1.56079,-1.56078 1.560783,1.5607885 0 0 1 1.56079,-1.56079 1.560783,1.5607885 0 0 1 1.56078,1.56079 z m -6.4,0 a 1.560783,1.5607885 0 0 1 -1.56078,1.56078 1.560783,1.5607885 0 0 1 -1.56079,-1.56078 1.560783,1.5607885 0 0 1 1.56079,-1.56079 1.560783,1.5607885 0 0 1 1.56078,1.56079 z m -6.399999,0 a 1.560783,1.5607885 0 0 1 -1.56079,1.56078 1.560783,1.5607885 0 0 1 -1.560787,-1.56078 1.560783,1.5607885 0 0 1 1.560787,-1.56079 1.560783,1.5607885 0 0 1 1.56079,1.56079 z m -88.667317,16.15 a 1.2388734,1.2388734 0 0 1 -1.2388677,1.23887 1.2388734,1.2388734 0 0 1 -1.238881,-1.23887 1.2388734,1.2388734 0 0 1 1.238881,-1.23887 1.2388734,1.2388734 0 0 1 1.2388677,1.23887 z M 3.5624775,214.96327 H 143.19054 v 76.12807 H 3.5624775 Z m 7.5529065,6.31403 a 1.2388734,1.2388734 0 0 1 -1.2388677,1.23887 1.2388734,1.2388734 0 0 1 -1.238881,-1.23887 1.2388734,1.2388734 0 0 1 1.238881,-1.23886 1.2388734,1.2388734 0 0 1 1.2388677,1.23886 z m 127.000006,0 a 1.2388734,1.2388734 0 0 1 -1.23887,1.23887 1.2388734,1.2388734 0 0 1 -1.23888,-1.23887 1.2388734,1.2388734 0 0 1 1.23888,-1.23886 1.2388734,1.2388734 0 0 1 1.23887,1.23886 z m -1e-5,63.50001 a 1.2388723,1.2388734 0 0 1 -1.23886,1.23887 1.2388723,1.2388734 0 0 1 -1.23888,-1.23887 1.2388723,1.2388734 0 0 1 1.23888,-1.23887 1.2388723,1.2388734 0 0 1 1.23886,1.23887 z M 50.083693,237.4273 a 1.560783,1.5607885 0 0 1 -1.560777,1.56079 1.560783,1.5607885 0 0 1 -1.560793,-1.56079 1.560783,1.5607885 0 0 1 1.560793,-1.56078 1.560783,1.5607885 0 0 1 1.560777,1.56078 z m -6.399998,0 a 1.560783,1.5607885 0 0 1 -1.56078,1.56079 1.560783,1.5607885 0 0 1 -1.56079,-1.56079 1.560783,1.5607885 0 0 1 1.56079,-1.56078 1.560783,1.5607885 0 0 1 1.56078,1.56078 z m -6.400001,0 a 1.560783,1.5607885 0 0 1 -1.56078,1.56079 1.560783,1.5607885 0 0 1 -1.560789,-1.56079 1.560783,1.5607885 0 0 1 1.560789,-1.56078 1.560783,1.5607885 0 0 1 1.56078,1.56078 z m -6.399999,0 a 1.560783,1.5607885 0 0 1 -1.560779,1.56079 1.560783,1.5607885 0 0 1 -1.560791,-1.56079 1.560783,1.5607885 0 0 1 1.560791,-1.56078 1.560783,1.5607885 0 0 1 1.560779,1.56078 z m -6.4,0 a 1.560783,1.5607885 0 0 1 -1.560779,1.56079 1.560783,1.5607885 0 0 1 -1.560791,-1.56079 1.560783,1.5607885 0 0 1 1.560791,-1.56078 1.560783,1.5607885 0 0 1 1.560779,1.56078 z m -6.400001,0 a 1.560783,1.5607885 0 0 1 -1.560779,1.56079 1.560783,1.5607885 0 0 1 -1.560791,-1.56079 1.560783,1.5607885 0 0 1 1.560791,-1.56078 1.560783,1.5607885 0 0 1 1.560779,1.56078 z m -6.400001,0 a 1.560783,1.5607885 0 0 1 -1.560778,1.56079 1.560783,1.5607885 0 0 1 -1.5607907,-1.56079 1.560783,1.5607885 0 0 1 1.5607907,-1.56078 1.560783,1.5607885 0 0 1 1.560778,1.56078 z m 38.4,31.2 a 1.560783,1.5607885 0 0 1 -1.560777,1.56079 1.560783,1.5607885 0 0 1 -1.560793,-1.56079 1.560783,1.5607885 0 0 1 1.560793,-1.56078 1.560783,1.5607885 0 0 1 1.560777,1.56078 z m -6.399998,0 a 1.560783,1.5607885 0 0 1 -1.56078,1.56079 1.560783,1.5607885 0 0 1 -1.56079,-1.56079 1.560783,1.5607885 0 0 1 1.56079,-1.56078 1.560783,1.5607885 0 0 1 1.56078,1.56078 z m -6.400001,0 a 1.560783,1.5607885 0 0 1 -1.56078,1.56079 1.560783,1.5607885 0 0 1 -1.56079,-1.56079 1.560783,1.5607885 0 0 1 1.56079,-1.56078 1.560783,1.5607885 0 0 1 1.56078,1.56078 z m -6.4,0 a 1.560783,1.5607885 0 0 1 -1.560779,1.56079 1.560783,1.5607885 0 0 1 -1.560791,-1.56079 1.560783,1.5607885 0 0 1 1.560791,-1.56078 1.560783,1.5607885 0 0 1 1.560779,1.56078 z m -6.4,0 a 1.560783,1.5607885 0 0 1 -1.560779,1.56079 1.560783,1.5607885 0 0 1 -1.560791,-1.56079 1.560783,1.5607885 0 0 1 1.560791,-1.56078 1.560783,1.5607885 0 0 1 1.560779,1.56078 z m -6.4,0 a 1.560783,1.5607885 0 0 1 -1.560779,1.56079 1.560783,1.5607885 0 0 1 -1.560791,-1.56079 1.560783,1.5607885 0 0 1 1.560791,-1.56078 1.560783,1.5607885 0 0 1 1.560779,1.56078 z m -6.400001,0 a 1.560783,1.5607885 0 0 1 -1.560778,1.56079 1.560783,1.5607885 0 0 1 -1.5607907,-1.56079 1.560783,1.5607885 0 0 1 1.5607907,-1.56078 1.560783,1.5607885 0 0 1 1.560778,1.56078 z" />
  </g>
</svg>
